<svg xmlns="http://www.w3.org/2000/svg" viewBox="0 0 229.5 94.37"><title>Ethiopian Airlines logo</title><path d="M573.88,510.35A183.58,183.58,0,0,0,596,511.52c5.28-.17,9.26.58,13.72-4.15,4.67-4.84,4.12-7.36,1.3-6.58-4.18,1.25-19.44,6.45-37.44,9-.81.11-.61.54.34.6" transform="translate(-397.25 -464.82)" style="fill:#c43c30"/><path d="M569.8,509.05c12.31-3.13,43.11-19.68,47.67-22.63,2.26-1.4,4.74-.57.76,5.91-2.7,4-4.57,6.3-11.79,8.5-5,1.88-23.41,7.25-36.33,8.81-1,.08-1.25-.27-.31-.59" transform="translate(-397.25 -464.82)" style="fill:#f9cb2e"/><path d="M571,508.19c10.74-3.77,34.11-16.07,42.08-21,5.73-3.49,10.16-6.07,11.9-10.44,3.7-10,.87-14.06-2.65-10.94-4.5,4.37-25.63,26.53-52.67,42.12-.41.23-.48.77,1.34.22" transform="translate(-397.25 -464.82)" style="fill:#5e8c4d"/><path d="M406.72,507.49v10.63h6.37l2.24-1.28v4.54l-2.26-1.28h-6.35v6.68c0,1.49,0,3.88,0,3.88h9.46l3.64-3.73v5.72H397.25l2.95-2.12V507.89l-2.95-2.38h21.84v5.09l-3.69-3.11h-8.68Z" transform="translate(-397.25 -464.82)" style="fill:#c43c30"/><path d="M431,507.09v6.84h4.44v2H431v11.55c0,1.08,0,2.09,0,2.09a2,2,0,0,0,1.38.63,2.6,2.6,0,0,0,2.46-1.56l.6.44q-1.62,3.84-5.26,3.84a4.65,4.65,0,0,1-3-1,4.37,4.37,0,0,1-1.57-2.21,18.82,18.82,0,0,1-.2-3.68v-10.1h-3.91Z" transform="translate(-397.25 -464.82)" style="fill:#c43c30"/><path d="M473.21,513.72V531.1c.87.59,2,1.54,2,1.54h-9.57l2-1.54V518a27.64,27.64,0,0,0-2.66-2Z" transform="translate(-397.25 -464.82)" style="fill:#c43c30"/><path d="M470.41,506.07a3.37,3.37,0,0,1,2.2.73,2.21,2.21,0,0,1,.9,1.77,2.18,2.18,0,0,1-.91,1.76,3.41,3.41,0,0,1-2.19.72,3.37,3.37,0,0,1-2.18-.72,2.17,2.17,0,0,1,0-3.53,3.33,3.33,0,0,1,2.18-.73" transform="translate(-397.25 -464.82)" style="fill:#c43c30"/><path d="M532.66,513.72V531.1c.87.59,2,1.54,2,1.54h-9.57l2-1.54V518a27.65,27.65,0,0,0-2.66-2Z" transform="translate(-397.25 -464.82)" style="fill:#c43c30"/><path d="M529.86,506.07a3.37,3.37,0,0,1,2.2.73,2.21,2.21,0,0,1,.9,1.77,2.18,2.18,0,0,1-.91,1.76,3.41,3.41,0,0,1-2.19.72,3.37,3.37,0,0,1-2.18-.72,2.17,2.17,0,0,1,0-3.53,3.33,3.33,0,0,1,2.18-.73" transform="translate(-397.25 -464.82)" style="fill:#c43c30"/><path d="M547.07,529.67a11.26,11.26,0,0,1-6.77,3,3.63,3.63,0,0,1-2.66-1.05,3.55,3.55,0,0,1-1.06-2.63,5.16,5.16,0,0,1,1.84-3.85c1.23-1.14,4.53-2.66,8.65-4.55v-1.88c0-1.41-.47-3.13-1.69-3.56a5.43,5.43,0,0,0-4.24.64c-.35.24-3.56,2.82-3.56,2.82v-3s3-1.29,4.32-1.75a13,13,0,0,1,4.24-.7,7,7,0,0,1,4.21,1.13,5.28,5.28,0,0,1,2,2.45,15.84,15.84,0,0,1,.28,3.86v10.48l2.26,1.6h-7.79a24.61,24.61,0,0,0,0-3m0-1.46v-6.26c-1.61.95-4.91,3.22-5.69,4.3a3.69,3.69,0,0,0-.78,2.18,2.29,2.29,0,0,0,.66,1.62,1.82,1.82,0,0,0,1.4.54c.67,0,3.53-1.63,4.41-2.38" transform="translate(-397.25 -464.82)" style="fill:#c43c30"/><path d="M564.88,513.72v2.63a11.64,11.64,0,0,1,3.35-2.31,13.34,13.34,0,0,1,5.68-.73,6.12,6.12,0,0,1,3.45,1.07,4.83,4.83,0,0,1,1.6,2.51,19.35,19.35,0,0,1,.32,4.38V531l2,1.64-7.63,0s0-.29,0-1.62V520.24a12,12,0,0,0-.18-2.9A2.25,2.25,0,0,0,572,516.2a7.09,7.09,0,0,0-3.07-.17,5.82,5.82,0,0,0-4.07,2.51v12.53c.76.66,1.84,1.57,1.84,1.57h-9.46l2-1.57v-13c-.68-.67-2-2.08-2-2.08Z" transform="translate(-397.25 -464.82)" style="fill:#c43c30"/><path d="M492.6,523.22c0-4-.83-8.33-5.59-8.33s-5.58,4.37-5.58,8.33.88,8.32,5.58,8.32,5.59-4.37,5.59-8.32M487,513.37c6.4,0,10.71,4.74,10.72,9.84S493.41,533,487,533.05s-10.71-4.75-10.71-9.83,4.37-9.84,10.71-9.84" transform="translate(-397.25 -464.82)" style="fill:#c43c30"/><path d="M487,545.62a3.7,3.7,0,0,0-.48-2l0-.06c-1.07-1.95-4.28-2.36-6.79-2.36s-5.86.84-6.88,3.18a4.48,4.48,0,0,0-.39,1.55c0,.2,0,.41,0,.63,0,1.38-.09,3.28,1.58,4.56l2.51,2,2.25,1.74h0c.36.23.6.42.59.91v1.69l-2.45,1.75h8l-2.46-1.75v-1.81a2.9,2.9,0,0,0-1.18-2.68l-2.5-2-.56-.41c.53,0,1.16,0,1.65,0h.27c4.4.07,5.91-1.15,6.39-2.16a5.75,5.75,0,0,0,.4-2.79m-3.37-.12v.89a2,2,0,0,1-2.13,2.27c-1.28.1-2.13.16-2.9.16a21.82,21.82,0,0,1-2.21-.13c-.66-.15-.6-1.47-.58-2v-1c0-1.79,1.45-2.82,3.9-2.84h.17c1.58,0,2.59.27,3.16.86a2.37,2.37,0,0,1,.59,1.8" transform="translate(-397.25 -464.82)" style="fill:#c43c30"/><path d="M520.6,553.23v-2.72h-3.78v6.91l2.43,1.75h-8l2.46-1.75v-6.91h-3.79v2.72h-5.61l2.47-1.75v-2.63h6.93v-3.53h-2.49v-1.15L509,542.62l5.3-1.57v2.6h.89a1.39,1.39,0,0,1,1.59,1.57v3.63h6.92v2.63l2.44,1.75Z" transform="translate(-397.25 -464.82)" style="fill:#c43c30"/><path d="M546.31,550.51l-2.45-1.75v-2.63h-3.44c0-.16,0-.33,0-.51a3.6,3.6,0,0,0-.48-2.06l0,0c-1.07-1.95-4.28-2.36-6.79-2.36s-5.86.84-6.86,3.18a4.84,4.84,0,0,0-.41,1.51v0c0,.2,0,.42,0,.64,0,1.38-.06,3.27,1.59,4.55l2.51,2,2.25,1.74,0,0a1,1,0,0,1,.59.91v1.69l-2.45,1.75h8L536,557.43v-1.81a2.89,2.89,0,0,0-1.2-2.68l-2.49-2-.56-.42c.53,0,1.16,0,1.65,0H534c4.14,0,5.56-1.18,6-2.16a3.61,3.61,0,0,0,.23-.62h.46v2.73Zm-9.27-5v.88a2,2,0,0,1-2.13,2.28c-1.28.1-2.11.16-2.9.16a21.89,21.89,0,0,1-2.22-.13c-.66-.15-.59-1.47-.57-2v-1c0-1.78,1.44-2.82,3.88-2.84h.16c1.59,0,2.6.27,3.18.86a2.36,2.36,0,0,1,.59,1.8" transform="translate(-397.25 -464.82)" style="fill:#c43c30"/><path d="M581.17,545.62a3.63,3.63,0,0,0-.5-2.1c-1.06-1.95-4.28-2.36-6.79-2.36S568,542,567,544.34a4.76,4.76,0,0,0-.41,1.51v0c0,.2,0,.41,0,.63,0,1.38-.07,3.28,1.59,4.56l4.81,3.84-7.39.64v1.86l-2.45,1.75h8l-2.43-1.75v-.49l8.91-.76v-1.47l-5.22-4.2c.53,0,1.17,0,1.67,0h.63c4.15,0,5.57-1.18,6-2.17a5.86,5.86,0,0,0,.4-2.78m-3.36-.12v.89a2,2,0,0,1-2.14,2.27c-1.27.1-2.11.16-2.89.16a22.08,22.08,0,0,1-2.22-.13c-.66-.15-.6-1.47-.57-2v-1c0-1.78,1.44-2.82,3.89-2.84H574c1.58,0,2.58.27,3.16.85a2.4,2.4,0,0,1,.6,1.8" transform="translate(-397.25 -464.82)" style="fill:#c43c30"/><path d="M502.95,559.17v-.91a8.51,8.51,0,0,1-1,.63,2.17,2.17,0,0,1-1.14.28c-.64,0-1.33-.57-1.33-1.82V552c0-1.28-1.74-1.55-3.21-1.55a11.15,11.15,0,0,0-2.22.21.42.42,0,0,0-.21.13l-.1.14c-.07.11-.17.25-.3.43l0,0a2.34,2.34,0,0,0-.44,1.49v4.53l2.45,1.75h-8.1l2.5-1.75V552.9a5.24,5.24,0,0,1,1.18-3.16l3.38-4.42h-3.07v-1.15l-2.15-1.54,5.29-1.57v2.6h3.72v1.44l-2.8,3.68c.82-.08,1.55-.12,2.21-.12,3.29,0,5,1.06,5,3.16v4.41l1.78-1.2h1.68v2.39l2.45,1.75Z" transform="translate(-397.25 -464.82)" style="fill:#c43c30"/><path d="M560.27,554.7a3.29,3.29,0,0,0-2.74-3.56c2-.76,2.74-1.67,2.87-3.35h.33v2.73h5.59l-2.44-1.75v-2.63h-3.69c-.58-1.53-2.3-2.36-5.13-2.47v-2.61l-5.31,1.57,1.52,1.09c-2.38.25-4.56,1.44-4.66,3.75a3.38,3.38,0,0,0,.86,2.55,3.87,3.87,0,0,0,1.89,1.07l-1.22.43c-1.32.51-2.41,1.14-2.41,3.62v2.3l-2.47,1.75h8.06l-2.45-1.75v-2.08c0-.07,0-.14,0-.21,0-.58,0-.85.77-1.11l4.18-1.47c2.11.16,3.29.35,3.29,2.13v2.75l-2.45,1.75h8.05l-2.45-1.75Zm-3.12-7.62v0c0,.7,0,1.2-1.43,1.72-.3.11-1.49.54-2.56.9-2.69-.07-3.23-.47-3.23-2.36,0-1.36,1.22-2.08,3.63-2.14h.29a4.27,4.27,0,0,1,3,.74,1.41,1.41,0,0,1,.36,1.09" transform="translate(-397.25 -464.82)" style="fill:#c43c30"/><path d="M445.11,503.75v11.92a16.36,16.36,0,0,1,3-2.07,11.42,11.42,0,0,1,6.59-1.18,7.23,7.23,0,0,1,3.36,1.21,5,5,0,0,1,1.73,2.45,18.38,18.38,0,0,1,.43,4.74V531l2.1,1.61H454.4V519.73c0-1.61,0-2.27-.2-2.64a2.42,2.42,0,0,0-.87-.89,3.29,3.29,0,0,0-1.21-.43,7.25,7.25,0,0,0-2.09.07,8.87,8.87,0,0,0-2.66.92,6.34,6.34,0,0,0-2.27,1.86V531c.4.34,2,1.61,2,1.61H437.08l2.19-1.61v-22c-.26-.3-2.68-2.48-2.68-2.48Z" transform="translate(-397.25 -464.82)" style="fill:#c43c30"/><path d="M506.25,519.21V529a6.13,6.13,0,0,0,6.18,2.77c3.09-.37,5.57-4,5.28-7.77-.27-3.55-1.05-6.85-5.24-7.59a6.05,6.05,0,0,0-6.26,2.75m-7.48,22.22,2-1.91V518l-2.68-2,8.24-2V517c1.77-2.32,5.36-2.89,7.65-2.89,5.61,0,9.6,5.19,9.6,10.16,0,4.61-4,10.14-9.6,10.15-2.28,0-5.65-.68-7.65-2.9v8l2,1.91Z" transform="translate(-397.25 -464.82)" style="fill:#c43c30"/><path d="M573.88,510.35A183.58,183.58,0,0,0,596,511.52c5.28-.17,9.26.58,13.72-4.15,4.67-4.84,4.12-7.36,1.3-6.58-4.18,1.25-19.44,6.45-37.44,9-.81.11-.61.54.34.6" transform="translate(-397.25 -464.82)" style="fill:#c43c30"/><path d="M569.8,509.05c12.31-3.13,43.11-19.68,47.67-22.63,2.26-1.4,4.74-.57.76,5.91-2.7,4-4.57,6.3-11.79,8.5-5,1.88-23.41,7.25-36.33,8.81-1,.08-1.25-.27-.31-.59" transform="translate(-397.25 -464.82)" style="fill:#f9cb2e"/><path d="M571,508.19c10.74-3.77,34.11-16.07,42.08-21,5.73-3.49,10.16-6.07,11.9-10.44,3.7-10,.87-14.06-2.65-10.94-4.5,4.37-25.63,26.53-52.67,42.12-.41.23-.48.77,1.34.22" transform="translate(-397.25 -464.82)" style="fill:#5e8c4d"/><path d="M406.72,507.49v10.63h6.37l2.24-1.28v4.54l-2.26-1.28h-6.35v6.68c0,1.49,0,3.88,0,3.88h9.46l3.64-3.73v5.72H397.25l2.95-2.12V507.89l-2.95-2.38h21.84v5.09l-3.69-3.11h-8.68Z" transform="translate(-397.25 -464.82)" style="fill:#c43c30"/><path d="M431,507.09v6.84h4.44v2H431v11.55c0,1.08,0,2.09,0,2.09a2,2,0,0,0,1.38.63,2.6,2.6,0,0,0,2.46-1.56l.6.44q-1.62,3.84-5.26,3.84a4.65,4.65,0,0,1-3-1,4.37,4.37,0,0,1-1.57-2.21,18.82,18.82,0,0,1-.2-3.68v-10.1h-3.91Z" transform="translate(-397.25 -464.82)" style="fill:#c43c30"/><path d="M473.21,513.72V531.1c.87.59,2,1.54,2,1.54h-9.57l2-1.54V518a27.64,27.64,0,0,0-2.66-2Z" transform="translate(-397.25 -464.82)" style="fill:#c43c30"/><path d="M470.41,506.07a3.37,3.37,0,0,1,2.2.73,2.21,2.21,0,0,1,.9,1.77,2.18,2.18,0,0,1-.91,1.76,3.41,3.41,0,0,1-2.19.72,3.37,3.37,0,0,1-2.18-.72,2.17,2.17,0,0,1,0-3.53,3.33,3.33,0,0,1,2.18-.73" transform="translate(-397.25 -464.82)" style="fill:#c43c30"/><path d="M532.66,513.72V531.1c.87.59,2,1.54,2,1.54h-9.57l2-1.54V518a27.65,27.65,0,0,0-2.66-2Z" transform="translate(-397.25 -464.82)" style="fill:#c43c30"/><path d="M529.86,506.07a3.37,3.37,0,0,1,2.2.73,2.21,2.21,0,0,1,.9,1.77,2.18,2.18,0,0,1-.91,1.76,3.41,3.41,0,0,1-2.19.72,3.37,3.37,0,0,1-2.18-.72,2.17,2.17,0,0,1,0-3.53,3.33,3.33,0,0,1,2.18-.73" transform="translate(-397.25 -464.82)" style="fill:#c43c30"/><path d="M547.07,529.67a11.26,11.26,0,0,1-6.77,3,3.63,3.63,0,0,1-2.66-1.05,3.55,3.55,0,0,1-1.06-2.63,5.16,5.16,0,0,1,1.84-3.85c1.23-1.14,4.53-2.66,8.65-4.55v-1.88c0-1.41-.47-3.13-1.69-3.56a5.43,5.43,0,0,0-4.24.64c-.35.24-3.56,2.82-3.56,2.82v-3s3-1.29,4.32-1.75a13,13,0,0,1,4.24-.7,7,7,0,0,1,4.21,1.13,5.28,5.28,0,0,1,2,2.45,15.84,15.84,0,0,1,.28,3.86v10.48l2.26,1.6h-7.79a24.61,24.61,0,0,0,0-3m0-1.46v-6.26c-1.61.95-4.91,3.22-5.69,4.3a3.69,3.69,0,0,0-.78,2.18,2.29,2.29,0,0,0,.66,1.62,1.82,1.82,0,0,0,1.4.54c.67,0,3.53-1.63,4.41-2.38" transform="translate(-397.25 -464.82)" style="fill:#c43c30"/><path d="M564.88,513.72v2.63a11.64,11.64,0,0,1,3.35-2.31,13.34,13.34,0,0,1,5.68-.73,6.12,6.12,0,0,1,3.45,1.07,4.83,4.83,0,0,1,1.6,2.51,19.35,19.35,0,0,1,.32,4.38V531l2,1.64-7.63,0s0-.29,0-1.62V520.24a12,12,0,0,0-.18-2.9A2.25,2.25,0,0,0,572,516.2a7.09,7.09,0,0,0-3.07-.17,5.82,5.82,0,0,0-4.07,2.51v12.53c.76.66,1.84,1.57,1.84,1.57h-9.46l2-1.57v-13c-.68-.67-2-2.08-2-2.08Z" transform="translate(-397.25 -464.82)" style="fill:#c43c30"/><path d="M492.6,523.22c0-4-.83-8.33-5.59-8.33s-5.58,4.37-5.58,8.33.88,8.32,5.58,8.32,5.59-4.37,5.59-8.32M487,513.37c6.4,0,10.71,4.74,10.72,9.84S493.41,533,487,533.05s-10.71-4.75-10.71-9.83,4.37-9.84,10.71-9.84" transform="translate(-397.25 -464.82)" style="fill:#c43c30"/><path d="M487,545.62a3.7,3.7,0,0,0-.48-2l0-.06c-1.07-1.95-4.28-2.36-6.79-2.36s-5.86.84-6.88,3.18a4.48,4.48,0,0,0-.39,1.55c0,.2,0,.41,0,.63,0,1.38-.09,3.28,1.58,4.56l2.51,2,2.25,1.74h0c.36.23.6.42.59.91v1.69l-2.45,1.75h8l-2.46-1.75v-1.81a2.9,2.9,0,0,0-1.18-2.68l-2.5-2-.56-.41c.53,0,1.16,0,1.65,0h.27c4.4.07,5.91-1.15,6.39-2.16a5.75,5.75,0,0,0,.4-2.79m-3.37-.12v.89a2,2,0,0,1-2.13,2.27c-1.28.1-2.13.16-2.9.16a21.82,21.82,0,0,1-2.21-.13c-.66-.15-.6-1.47-.58-2v-1c0-1.79,1.45-2.82,3.9-2.84h.17c1.58,0,2.59.27,3.16.86a2.37,2.37,0,0,1,.59,1.8" transform="translate(-397.25 -464.82)" style="fill:#c43c30"/><path d="M520.6,553.23v-2.72h-3.78v6.91l2.43,1.75h-8l2.46-1.75v-6.91h-3.79v2.72h-5.61l2.47-1.75v-2.63h6.93v-3.53h-2.49v-1.15L509,542.62l5.3-1.57v2.6h.89a1.39,1.39,0,0,1,1.59,1.57v3.63h6.92v2.63l2.44,1.75Z" transform="translate(-397.25 -464.82)" style="fill:#c43c30"/><path d="M546.31,550.51l-2.45-1.75v-2.63h-3.44c0-.16,0-.33,0-.51a3.6,3.6,0,0,0-.48-2.06l0,0c-1.07-1.95-4.28-2.36-6.79-2.36s-5.86.84-6.86,3.18a4.84,4.84,0,0,0-.41,1.51v0c0,.2,0,.42,0,.64,0,1.38-.06,3.27,1.59,4.55l2.51,2,2.25,1.74,0,0a1,1,0,0,1,.59.91v1.69l-2.45,1.75h8L536,557.43v-1.81a2.89,2.89,0,0,0-1.2-2.68l-2.49-2-.56-.42c.53,0,1.16,0,1.65,0H534c4.14,0,5.56-1.18,6-2.16a3.61,3.61,0,0,0,.23-.62h.46v2.73Zm-9.27-5v.88a2,2,0,0,1-2.13,2.28c-1.28.1-2.11.16-2.9.16a21.89,21.89,0,0,1-2.22-.13c-.66-.15-.59-1.47-.57-2v-1c0-1.78,1.44-2.82,3.88-2.84h.16c1.59,0,2.6.27,3.18.86a2.36,2.36,0,0,1,.59,1.8" transform="translate(-397.25 -464.82)" style="fill:#c43c30"/><path d="M581.17,545.62a3.63,3.63,0,0,0-.5-2.1c-1.06-1.95-4.28-2.36-6.79-2.36S568,542,567,544.34a4.76,4.76,0,0,0-.41,1.51v0c0,.2,0,.41,0,.63,0,1.38-.07,3.28,1.59,4.56l4.81,3.84-7.39.64v1.86l-2.45,1.75h8l-2.43-1.75v-.49l8.91-.76v-1.47l-5.22-4.2c.53,0,1.17,0,1.67,0h.63c4.15,0,5.57-1.18,6-2.17a5.86,5.86,0,0,0,.4-2.78m-3.36-.12v.89a2,2,0,0,1-2.14,2.27c-1.27.1-2.11.16-2.89.16a22.08,22.08,0,0,1-2.22-.13c-.66-.15-.6-1.47-.57-2v-1c0-1.78,1.44-2.82,3.89-2.84H574c1.58,0,2.58.27,3.16.85a2.4,2.4,0,0,1,.6,1.8" transform="translate(-397.25 -464.82)" style="fill:#c43c30"/><path d="M502.95,559.17v-.91a8.51,8.51,0,0,1-1,.63,2.17,2.17,0,0,1-1.14.28c-.64,0-1.33-.57-1.33-1.82V552c0-1.28-1.74-1.55-3.21-1.55a11.15,11.15,0,0,0-2.22.21.42.42,0,0,0-.21.13l-.1.14c-.07.11-.17.25-.3.43l0,0a2.34,2.34,0,0,0-.44,1.49v4.53l2.45,1.75h-8.1l2.5-1.75V552.9a5.24,5.24,0,0,1,1.18-3.16l3.38-4.42h-3.07v-1.15l-2.15-1.54,5.29-1.57v2.6h3.72v1.44l-2.8,3.68c.82-.08,1.55-.12,2.21-.12,3.29,0,5,1.06,5,3.16v4.41l1.78-1.2h1.68v2.39l2.45,1.75Z" transform="translate(-397.25 -464.82)" style="fill:#c43c30"/><path d="M560.27,554.7a3.29,3.29,0,0,0-2.74-3.56c2-.76,2.74-1.67,2.87-3.35h.33v2.73h5.59l-2.44-1.75v-2.63h-3.69c-.58-1.53-2.3-2.36-5.13-2.47v-2.61l-5.31,1.57,1.52,1.09c-2.38.25-4.56,1.44-4.66,3.75a3.38,3.38,0,0,0,.86,2.55,3.87,3.87,0,0,0,1.89,1.07l-1.22.43c-1.32.51-2.41,1.14-2.41,3.62v2.3l-2.47,1.75h8.06l-2.45-1.75v-2.08c0-.07,0-.14,0-.21,0-.58,0-.85.77-1.11l4.18-1.47c2.11.16,3.29.35,3.29,2.13v2.75l-2.45,1.75h8.05l-2.45-1.75Zm-3.12-7.62v0c0,.7,0,1.2-1.43,1.72-.3.11-1.49.54-2.56.9-2.69-.07-3.23-.47-3.23-2.36,0-1.36,1.22-2.08,3.63-2.14h.29a4.27,4.27,0,0,1,3,.74,1.41,1.41,0,0,1,.36,1.09" transform="translate(-397.25 -464.82)" style="fill:#c43c30"/><path d="M445.11,503.75v11.92a16.36,16.36,0,0,1,3-2.07,11.42,11.42,0,0,1,6.59-1.18,7.23,7.23,0,0,1,3.36,1.21,5,5,0,0,1,1.73,2.45,18.38,18.38,0,0,1,.43,4.74V531l2.1,1.61H454.4V519.73c0-1.61,0-2.27-.2-2.64a2.42,2.42,0,0,0-.87-.89,3.29,3.29,0,0,0-1.21-.43,7.25,7.25,0,0,0-2.09.07,8.87,8.87,0,0,0-2.66.92,6.34,6.34,0,0,0-2.27,1.86V531c.4.34,2,1.61,2,1.61H437.08l2.19-1.61v-22c-.26-.3-2.68-2.48-2.68-2.48Z" transform="translate(-397.25 -464.82)" style="fill:#c43c30"/><path d="M506.25,519.21V529a6.13,6.13,0,0,0,6.18,2.77c3.09-.37,5.57-4,5.28-7.77-.27-3.55-1.05-6.85-5.24-7.59a6.05,6.05,0,0,0-6.26,2.75m-7.48,22.22,2-1.91V518l-2.68-2,8.24-2V517c1.77-2.32,5.36-2.89,7.65-2.89,5.61,0,9.6,5.19,9.6,10.16,0,4.61-4,10.14-9.6,10.15-2.28,0-5.65-.68-7.65-2.9v8l2,1.91Z" transform="translate(-397.25 -464.82)" style="fill:#c43c30"/></svg>