<?xml version="1.0" encoding="utf-8"?>
<!-- Generator: Adobe Illustrator 22.0.0, SVG Export Plug-In . SVG Version: 6.00 Build 0)  -->
<svg version="1.1" id="Layer_1" xmlns="http://www.w3.org/2000/svg" xmlns:xlink="http://www.w3.org/1999/xlink" x="0px" y="0px"
	 viewBox="0 0 407.4 132.1" style="enable-background:new 0 0 407.4 132.1;" xml:space="preserve">
<style type="text/css">
	.st0{clip-path:url(#SVGID_2_);}
	.st1{fill:#050606;}
	.st2{fill:#FBE201;}
	.st3{fill:#EA2429;}
	.st4{fill:#FFFFFF;}
	.st5{fill:#D91F26;}
	.st6{fill:#010101;}
	.st7{fill:#FCDC00;}
	.st8{fill:#9CA69C;}
</style>
<rect x="83.3" y="191.3" style="fill:none;" width="3.3" height="1.3"/>
<g>
	<g>
		<g>
			<defs>
				<path id="SVGID_1_" d="M282.8,69.1l45.8-46.4c0,0,0.9-1.7,7.1-1.7s9.4,0,9.4,0l-17,48.2H282.8z"/>
			</defs>
			<clipPath id="SVGID_2_">
				<use xlink:href="#SVGID_1_"  style="overflow:visible;"/>
			</clipPath>
			<g class="st0">
				<g>
					<path class="st1" d="M286.8,51.6l8.1,0.1l47.2-21.6l6.8-11.1c0,0-18.4-3.7-41.1,12.7C285,48.1,283.8,52,283.8,52L286.8,51.6z"
						/>
					<path class="st2" d="M285.8,57.7l8.1,0.1l47.2-21.6l6.8-11.1c0,0-18.4-3.7-41.1,12.7s-23.9,20.3-23.9,20.3L285.8,57.7z"/>
					<path class="st3" d="M282.8,69.1l8.1-0.1l46.4-23.1l6.4-11.3c0,0-18.5-3.1-40.7,14.1s-23.2,21-23.2,21L282.8,69.1z"/>
					<path class="st1" d="M285.2,69.1h9.8l39.6-15l5.1-9.9c0,0-17.5,1.4-24.7,5.2S295.7,60.2,285.2,69.1z"/>
					<path class="st2" d="M307.9,70.1h-15c0,0,15.5-13.6,41.7-15.9c26.2-2.4-12.9,15-12.9,15L307.9,70.1z"/>
				</g>
				<path class="st3" d="M307.3,69c0,0,16.5-5.3,22.5-4.7c6,0.6-1.4,8-1.4,8l-21.1-0.6V69z"/>
			</g>
		</g>
		<g>
			<g>
				<circle class="st4" cx="321.8" cy="47.9" r="8.3"/>
			</g>
			<g>
				<g>
					<g>
						<g>
							<g>
								<path class="st5" d="M320.5,41.6l-0.5-1c0.2-0.2,0.6-0.4,1.1-0.4c0,0-0.1,1.1-0.1,1.1L320.5,41.6z"/>
								<path class="st6" d="M320.4,41.6l-0.6-1.1l0,0c0.3-0.3,0.6-0.4,1.2-0.4h0v0c0,0-0.1,1-0.1,1.1l0,0L320.4,41.6z M320,40.6
									l0.5,0.9l0.5-0.2c0-0.4,0-0.9,0.1-1C320.5,40.3,320.2,40.4,320,40.6z"/>
							</g>
							<g>
								<path class="st7" d="M321,41.3l0.1-1.1c0,0,1.1-0.1,1.7,0.7c0,0-0.6,0.9-0.6,0.9L321,41.3z"/>
								<path class="st6" d="M322.2,41.8l-1.3-0.4l0.1-1.2l0,0c0,0,1.1-0.1,1.8,0.7C322.8,40.9,322.8,40.9,322.2,41.8L322.2,41.8z
									 M321,41.3l1.1,0.4c0.2-0.3,0.5-0.7,0.6-0.8c-0.5-0.6-1.4-0.6-1.6-0.6L321,41.3z"/>
							</g>
							<g>
								<path class="st5" d="M322.2,41.7l0.6-0.9c0.4,0.4,0.5,0.7,0.6,1.1c0,0-0.9,0.2-0.9,0.2C322.5,42.1,322.2,41.7,322.2,41.7z"
									/>
								<path class="st6" d="M322.5,42.2L322.5,42.2L322.5,42.2c-0.1-0.1-0.3-0.4-0.3-0.5l0,0l0,0l0.6-0.9l0,0
									c0.4,0.4,0.5,0.7,0.6,1.1l0,0l0,0C323.3,42,322.5,42.2,322.5,42.2z M322.2,41.7c0.1,0.1,0.2,0.3,0.2,0.4
									c0.1,0,0.7-0.2,0.8-0.2c-0.1-0.4-0.2-0.6-0.5-1L322.2,41.7z"/>
							</g>
							<g>
								<path class="st6" d="M320.7,55.8c0,0,1-1.2,3-0.9c-0.3-0.5-1.3-0.4-1.3-0.4s-0.3-2.3-0.1-2.4c0.2-0.1,1.2,0,1.2,0
									c0.1,0,0.4-0.4,0.2-0.6c-0.2-0.2-0.7-1.1-0.5-1.3c0.2-0.2,1.4,0.1,1.4,0.1l-3.3-4.3c0,0-0.3-1.6,0.3-2.4
									c0.8-0.7,0.7-1.4,0.7-1.4c-0.1-0.7-1.3-1.3-2-0.6c-0.5,0.6-0.2,1-0.2,1s-1.2,0.3-1.2,0.5c0,0.2,1.3,0,1.3,0l-0.1,1
									c0,0-2.7,2.5-0.6,4.6c0,0,0.1-0.1,0.1-0.1s0.7,0.9,1.5,1.1c0.7,0.7,0.7,0.6,0.7,0.6s0.1,1.2,0,1.4c-0.2-0.1-2-0.1-2.3,0
									c-0.2,0.1-1.2,0-1,1.6c0.2-0.4,0.3-0.8,0.3-0.8s0,0.6,0.2,0.8c0-0.6,0.2-1,0.2-1s0,0.6,0.2,0.7c0.1,0.1,0.1-1,0.9-0.9
									c0.8,0.1,1.4,0.1,1.4,0.1s0.3,2.2,0.2,2.4c-0.6-0.1-1.9,0.1-2,0.4c0.8,0,1.2,0,1.2,0S320.5,55.5,320.7,55.8z"/>
								<path class="st6" d="M320.7,55.9L320.7,55.9c-0.2-0.3,0.2-0.8,0.4-0.9c-0.1,0-0.3,0-0.6,0c-0.1,0-0.3,0-0.4,0l-0.1,0l0-0.1
									c0.1-0.3,1-0.5,1.6-0.5c0.2,0,0.3,0,0.4,0c0-0.3-0.1-1.5-0.2-2.3c0,0-0.1,0-0.2,0c-0.3,0-0.7,0-1.1-0.1
									c-0.5-0.1-0.7,0.4-0.8,0.7c-0.1,0.2-0.1,0.2-0.1,0.2c0,0,0,0,0,0c-0.1-0.1-0.2-0.4-0.2-0.6c-0.1,0.2-0.2,0.5-0.1,0.8l0,0.1
									l-0.1-0.1c-0.2-0.1-0.2-0.4-0.2-0.6c-0.1,0.1-0.2,0.4-0.3,0.6l-0.1,0.1l0-0.2c-0.2-1.4,0.5-1.5,0.9-1.6c0,0,0.1,0,0.1,0
									c0.1,0,0.5-0.1,0.8-0.1c0.6,0,1.3,0,1.4,0.1c0.1-0.2,0-0.9,0-1.3c-0.1,0-0.2-0.2-0.6-0.6c-0.7-0.2-1.3-0.9-1.5-1.1
									c0,0,0,0.1-0.1,0.1l0,0l0,0c-0.5-0.6-0.8-1.2-0.8-1.9c0-1.4,1.3-2.6,1.4-2.8l0.1-0.9c-0.2,0-0.7,0.1-1,0.1
									c-0.2,0-0.3,0-0.3-0.1c0,0,0,0,0-0.1c0-0.2,0.9-0.5,1.2-0.5c-0.1-0.1-0.2-0.5,0.2-1c0.2-0.2,0.5-0.3,0.9-0.3
									c0.6,0,1.2,0.4,1.2,0.9l0,0c0,0.1,0.1,0.8-0.7,1.5c-0.6,0.7-0.4,2.2-0.3,2.3l3.4,4.4l-0.1,0c0,0-0.7-0.2-1.1-0.2
									c-0.2,0-0.2,0-0.3,0c0,0,0,0,0,0.1c0,0.3,0.4,0.9,0.5,1.1c0.1,0.1,0.1,0.3,0,0.4c-0.1,0.1-0.1,0.2-0.2,0.2
									c0,0-0.5-0.1-0.8-0.1c-0.2,0-0.3,0-0.4,0c-0.1,0.1-0.1,1.3,0.1,2.3c0,0,0,0,0.1,0c0.3,0,1,0,1.2,0.5l0,0.1l-0.1,0
									c-0.2,0-0.4,0-0.6,0C321.6,54.9,320.8,55.8,320.7,55.9L320.7,55.9z M320.4,54.8c0.5,0,0.7,0.1,0.8,0.1l0.1,0l-0.1,0.1
									c-0.2,0.1-0.5,0.5-0.5,0.8c0.2-0.2,1-0.9,2.5-0.9c0.2,0,0.3,0,0.5,0c-0.3-0.3-0.9-0.3-1.1-0.3c-0.1,0-0.1,0-0.1,0l0,0l0,0
									c-0.1-0.5-0.3-2.3,0-2.5c0.1,0,0.2-0.1,0.4-0.1c0.4,0,0.8,0.1,0.8,0.1c0,0,0.1-0.1,0.2-0.2c0,0,0.1-0.2,0-0.4
									c-0.1-0.2-0.6-0.9-0.6-1.2c0-0.1,0-0.1,0.1-0.1c0.1,0,0.2-0.1,0.3-0.1c0.3,0,0.8,0.1,1,0.1l-3.3-4.2c0-0.1-0.3-1.6,0.4-2.4
									c0.7-0.6,0.7-1.2,0.7-1.3l0,0l0-0.1c-0.1-0.5-0.6-0.9-1.2-0.9c-0.3,0-0.6,0.1-0.8,0.3c-0.4,0.5-0.1,0.9-0.1,0.9l0,0.1
									l-0.1,0c-0.6,0.2-1.2,0.4-1.2,0.5l0,0c0,0,0,0,0.2,0c0.4,0,1.1-0.1,1.1-0.1l0.1,0l-0.1,1l0,0c0,0-1.4,1.3-1.4,2.7
									c0,0.7,0.2,1.3,0.7,1.8c0,0,0,0,0,0l0-0.1l0,0.1c0,0,0.7,0.9,1.5,1.1l0,0l0,0c0.5,0.5,0.6,0.6,0.6,0.6l0,0l0,0l0,0l0,0l0,0
									l0,0c0,0.2,0.1,1.2,0,1.4l0,0l0,0c-0.1,0-0.8-0.1-1.5-0.1c-0.4,0-0.7,0-0.8,0.1c0,0-0.1,0-0.1,0c-0.3,0.1-1,0.2-0.8,1.3
									c0.2-0.4,0.3-0.6,0.3-0.6l0.1,0c0,0,0,0.4,0.1,0.6c0-0.5,0.2-0.9,0.2-0.9l0.1-0.1l0,0.1c0,0.2,0.1,0.6,0.2,0.7
									c0,0,0-0.1,0.1-0.2c0.1-0.3,0.3-0.8,0.9-0.8c0.5,0.1,0.9,0.1,1.1,0.1c0.1,0,0.2,0,0.2,0l0,0l0,0c0,0.2,0.3,2.2,0.2,2.5l0,0
									l0,0c-0.1,0-0.3,0-0.5,0c-0.6,0-1.3,0.1-1.5,0.3C320.2,54.8,320.3,54.8,320.4,54.8z"/>
							</g>
							<g>
								<path class="st8" d="M321,43.6c0,0-2,2.2-1.1,3.8c0-0.2,0-0.4,0.1-0.4c0,0,0.2,0.2,0.2,0.2c0-0.1-0.1-0.4-0.1-0.4
									c0.1,0,0.2,0,0.3,0.1c-0.1-0.1-0.1-0.2-0.2-0.3c0.1,0,0.3,0,0.4,0c0,0-0.1-0.4-0.1-0.4c0,0,0.3,0,0.3,0
									C320.3,45.4,320.8,44.5,321,43.6z"/>
								<path class="st8" d="M319.9,47.6l-0.1-0.1c-0.9-1.7,1.1-3.9,1.1-3.9l0.1,0c-0.1,0.2-0.1,0.4-0.2,0.5c-0.2,0.7-0.5,1.4,0,2.2
									l0,0.1l-0.1,0c-0.1,0-0.2,0-0.3,0c0,0.1,0.1,0.2,0.1,0.3l0,0.1l-0.4,0l0.2,0.3l-0.3-0.1c0,0.1,0.1,0.2,0.1,0.3l0,0l0,0l0,0
									c0,0-0.1-0.1-0.2-0.1c0,0,0,0,0,0c0,0.1,0,0.2,0,0.3L319.9,47.6z M320.9,43.8c-0.4,0.5-1.6,2.2-1,3.5c0,0,0-0.1,0-0.1
									c0,0,0-0.1,0-0.1l0,0l0.1,0l0,0l0,0l0,0l0,0l0,0c0,0,0.1,0.1,0.1,0.1c0-0.1-0.1-0.2-0.1-0.3l0-0.1l0.3,0.1l-0.1-0.3l0.4,0
									c-0.1-0.3-0.1-0.3-0.1-0.3l0,0l0,0c0,0,0.2,0,0.2,0c-0.4-0.8-0.2-1.5,0.1-2.2C320.9,44.1,320.9,44,320.9,43.8z"/>
							</g>
							<g>
								<path class="st8" d="M321.7,41.8c0,0,0.1,0.7-0.3,1c-0.1,0-0.3,0.1-0.3,0.3c0,0.2,0.2,0.2,0.3,0.1
									C321.9,43.1,322.4,42.2,321.7,41.8z"/>
								<path class="st8" d="M321.3,43.2L321.3,43.2c-0.1,0-0.2-0.1-0.2-0.2c0-0.2,0.1-0.2,0.2-0.3c0,0,0,0,0.1,0
									c0.4-0.2,0.3-0.9,0.3-0.9l0-0.1l0.1,0c0.3,0.2,0.4,0.4,0.3,0.7c-0.1,0.3-0.3,0.7-0.6,0.7l0,0
									C321.4,43.2,321.3,43.2,321.3,43.2z M321.8,41.9c0,0.2,0,0.7-0.3,0.9c0,0,0,0-0.1,0c-0.1,0.1-0.2,0.1-0.2,0.2
									c0,0.1,0.1,0.1,0.1,0.1c0,0,0.1,0,0.1,0l0,0c0.2,0,0.5-0.3,0.5-0.7C322,42.3,322,42.1,321.8,41.9z"/>
							</g>
							<g>
								<path class="st4" d="M320.9,42.3c0.1,0,0.2,0.1,0.2,0.2c0,0.1-0.1,0.2-0.2,0.2c-0.1,0-0.2-0.1-0.2-0.2
									C320.7,42.3,320.8,42.3,320.9,42.3z"/>
							</g>
							<g>
								<path class="st5" d="M320.4,43c-0.1,0.1-0.7,0.7-0.1,0.9c0.6-0.2,0.4-0.3,0.5-0.4C320.8,43.3,320.5,43.2,320.4,43z"/>
								<path class="st6" d="M320.2,44L320.2,44c-0.2-0.1-0.3-0.2-0.3-0.3c0-0.3,0.3-0.6,0.4-0.7l0,0l0,0c0,0,0.1,0.1,0.2,0.1
									c0.1,0.1,0.3,0.2,0.3,0.4l0,0l0,0c0,0,0,0.1-0.1,0.1C320.7,43.8,320.7,43.8,320.2,44L320.2,44z M320.4,43.1
									c-0.1,0.1-0.3,0.4-0.3,0.6c0,0.1,0.1,0.2,0.2,0.2c0.4-0.1,0.4-0.2,0.4-0.2c0,0,0-0.1,0.1-0.1c0-0.1-0.1-0.2-0.2-0.3
									C320.5,43.2,320.4,43.2,320.4,43.1z"/>
							</g>
							<g>
								<path class="st8" d="M321.6,48.4c0,0.1-0.2,0.6,0,0.9c0.5-0.2,0.7-0.1,0.9,0C322,49,321.9,48.9,321.6,48.4z"/>
								<path class="st8" d="M321.6,49.4L321.6,49.4c-0.2-0.4-0.1-0.8,0-1l0-0.1l0.1,0.1c0.3,0.4,0.5,0.6,0.9,0.9l-0.1,0.1
									c-0.1,0-0.2-0.1-0.3-0.1C322,49.3,321.8,49.3,321.6,49.4L321.6,49.4z M321.6,48.5c0,0.2-0.1,0.5,0,0.8
									c0.2-0.1,0.4-0.1,0.6-0.1C322,49,321.8,48.8,321.6,48.5z"/>
							</g>
							<g>
								<path class="st4" d="M322.4,50.6l0,1.1c0,0,0.4,0.1,0.5,0C323.1,51.6,322.9,50.9,322.4,50.6z"/>
								<path class="st4" d="M322.7,51.7L322.7,51.7c-0.2,0-0.3,0-0.3,0l0,0l0-1.2l0.1,0c0.4,0.3,0.7,0.7,0.7,1
									c0,0.1-0.1,0.1-0.1,0.2C322.9,51.7,322.8,51.7,322.7,51.7z M322.4,51.6c0.1,0,0.2,0,0.3,0l0,0c0.1,0,0.2,0,0.2,0
									c0,0,0,0,0-0.1c0-0.2-0.2-0.6-0.5-0.9L322.4,51.6z"/>
							</g>
							<g>
								<path class="st8" d="M325.1,50.7c0,0-0.7-1.7-2.4-2.1c-1.7-0.4-1.5-2.3-1.4-2.4c0.1-0.2,0.1-0.4,0.6-0.2
									c0.5,0.2,2.8,1.4,3.1,1.5C325.4,47.6,325.1,50.8,325.1,50.7z"/>
								<path class="st6" d="M325.1,50.8L325.1,50.8L325.1,50.8c0,0-0.7-1.7-2.4-2.1c-1-0.2-1.3-0.9-1.5-1.4c-0.1-0.5,0-0.9,0-1l0,0
									c0-0.1,0.1-0.3,0.3-0.3c0.1,0,0.2,0,0.4,0.1c0.1,0.1,0.3,0.2,0.6,0.3c0.9,0.4,2.3,1.1,2.5,1.2c0.3,0.1,0.2,1.9,0.1,2.7
									C325.1,50.8,325.1,50.8,325.1,50.8z M321.6,46c-0.1,0-0.2,0.1-0.2,0.2l0,0.1c0,0-0.1,0.5,0,1c0.1,0.5,0.5,1.1,1.4,1.3
									c1.5,0.3,2.2,1.6,2.4,2c0.1-0.6,0.2-2.6,0-3c0,0,0,0,0,0c-0.3,0-1.7-0.7-2.6-1.2c-0.3-0.1-0.5-0.2-0.6-0.3
									C321.7,46.1,321.6,46,321.6,46z"/>
							</g>
							<g>
								<path class="st5" d="M323.4,48.6c0,0,2.3,1.4,1.6,2.6c0.7-0.4,0.5-1.2,0.5-1.2s0.6,1.4-0.8,2.1c0.1,0.1,0.2,0.1,0.2,0.1
									l-0.2,0.2c0,0-0.1,0.2,0.8-0.3c-0.2,0.2-0.3,0.3-0.3,0.3s0.1,0.2,0.7-0.3c-0.5,0.5-0.6,0.8-0.6,0.8c1.3-0.1,4.1-4.3-0.9-5.5
									c0.3,0.3,0.2,0.2,0.2,0.2L323.4,48.6z"/>
								<path class="st6" d="M325.2,53L325.2,53L325.2,53L325.2,53c0.1-0.2,0.2-0.4,0.4-0.5c-0.1,0.1-0.2,0.1-0.3,0.1
									c-0.1,0-0.1-0.1-0.1-0.1l0,0l0,0c0,0,0-0.1,0.1-0.2c-0.3,0.1-0.5,0.2-0.5,0.2c0,0-0.1,0-0.1,0c0,0,0,0,0-0.1l0.2-0.2
									c0,0-0.1,0-0.2-0.1l0,0l0.1,0c0.8-0.4,0.9-1.1,0.9-1.6c0,0.2-0.2,0.5-0.5,0.7l-0.1-0.1c0.3-0.5,0.2-1.2-1.5-2.4
									c-0.1-0.1-0.1-0.1-0.1-0.1l0,0l0,0l1.2-0.9c0,0-0.1-0.1-0.2-0.2l-0.1-0.1l0.2,0c2.6,0.7,2.9,2.1,2.9,2.9
									c-0.1,1.4-1.3,2.6-2,2.7l0,0L325.2,53L325.2,53z M325.9,52.2L325.9,52.2c-0.2,0.3-0.4,0.6-0.5,0.7c0.7-0.1,1.7-1.3,1.8-2.6
									c0.1-1.3-0.8-2.3-2.6-2.8c0,0,0.1,0.1,0.1,0.1l0,0l0,0l0,0c0,0,0,0,0,0l0,0l0,0l-1.2,0.9c0,0,0,0,0.1,0
									c1.6,1.1,1.8,1.9,1.6,2.4c0.5-0.4,0.3-1,0.3-1.1l0.1,0c0,0,0.5,1.4-0.7,2.2c0.1,0.1,0.1,0,0.1,0l0.2,0l-0.3,0.3
									c0.1,0,0.3-0.1,0.7-0.3l0,0.1c-0.2,0.1-0.2,0.3-0.2,0.3C325.3,52.5,325.5,52.5,325.9,52.2z"/>
							</g>
							<g>
								<path class="st4" d="M323.5,48.2c0.3,0.2,0.4,0.3,0.5,0.4c-0.3-0.1-0.6,0-0.6,0s-0.6-0.6-0.7-0.7c-0.1,0-0.6-0.3-0.6-0.3
									c-0.2-0.1-0.5-1,0.4-0.7c0.9,0.4,1.1,0.5,1.1,0.5c0.4,0.1,0.7,0.2,1.1,0.4c0.2,0.2,0.4,0.5,0.6,0.7c0,0-1.1-0.6-1.3-0.6
									c0.3,0.3,0.5,0.6,0.5,0.6C324.2,48.4,323.9,48.3,323.5,48.2z"/>
								<path class="st6" d="M324,48.7L324,48.7c-0.3-0.1-0.4-0.1-0.5-0.1c-0.1,0-0.1,0-0.1,0l0,0l0,0c-0.2-0.2-0.6-0.6-0.7-0.6
									c-0.1,0-0.5-0.2-0.6-0.3c-0.1-0.1-0.3-0.4-0.2-0.6c0-0.1,0.1-0.3,0.4-0.3c0.1,0,0.2,0,0.3,0c0.9,0.4,1.1,0.5,1.1,0.5
									l1.1,0.4l0.7,0.7l-0.1,0.1c-0.3-0.2-0.8-0.4-1.1-0.5c0.2,0.2,0.3,0.5,0.3,0.5l0,0.1l-0.2,0c-0.3-0.1-0.5-0.1-0.8-0.2
									C323.9,48.5,324,48.5,324,48.7L324,48.7z M323.5,48.6c0.1,0,0.2,0,0.4,0c-0.1-0.1-0.2-0.1-0.4-0.3l0,0l0-0.1
									c0.3,0.1,0.6,0.1,1,0.2c-0.1-0.1-0.2-0.3-0.4-0.5l-0.1-0.1l0.1,0c0.1,0,0.8,0.3,1.1,0.5l-0.5-0.5l-1.1-0.3
									c0,0-0.1,0-1.1-0.5c-0.1,0-0.2,0-0.3,0c-0.2,0-0.3,0.1-0.3,0.2c0,0.2,0.1,0.4,0.2,0.5c0.2,0.1,0.5,0.3,0.6,0.3l0,0
									C322.8,47.9,323.3,48.4,323.5,48.6C323.5,48.6,323.5,48.6,323.5,48.6z"/>
							</g>
							<g>
								<path class="st6" d="M319,43.1c0,0,1.1-0.3,1.2-0.2"/>
								<path class="st4" d="M319,43.2L319,43.2c0.2-0.1,1.1-0.4,1.2-0.3l0,0.1C320.2,42.9,319.6,43,319,43.2z"/>
							</g>
						</g>
					</g>
				</g>
			</g>
		</g>
	</g>
	<g>
		<path class="st6" d="M67.1,45.4h5.1v15.8c0,2.9-0.8,5-2.5,6.5c-1.7,1.5-4.1,2.2-7.2,2.2c-2.9,0-5.2-0.7-6.8-2.1
			c-1.7-1.4-2.5-3.5-2.5-6.4V45.4h5V61c0,1.5,0.4,2.6,1.1,3.5c0.7,0.9,1.8,1.3,3.1,1.3c3.2,0,4.7-1.5,4.7-4.6V45.4z"/>
		<path class="st6" d="M86,66.7c-0.3,0.8-0.9,1.4-1.8,1.8c-0.9,0.4-1.9,0.7-3,0.7c-1.5,0-2.7-0.3-3.7-0.8c-1-0.5-1.8-1.2-2.4-2
			s-1-1.8-1.3-2.9c-0.3-1.1-0.4-2.2-0.4-3.4c0-1.4,0.2-2.6,0.6-3.7c0.4-1.1,1-2.1,1.6-2.9c0.7-0.8,1.5-1.4,2.4-1.9
			c0.9-0.4,1.9-0.7,3-0.7c2.2,0,3.8,0.9,4.9,2.6v-2.2h4.6v17.7c0,1.3-0.2,2.5-0.7,3.5c-0.5,1-1.1,1.9-1.9,2.5
			c-0.8,0.7-1.7,1.2-2.8,1.6c-1.1,0.4-2.2,0.5-3.4,0.5s-2.3-0.2-3.4-0.5c-1-0.3-1.9-0.8-2.7-1.5c-0.7-0.6-1.3-1.4-1.8-2.3
			s-0.6-1.9-0.6-3.1h4.3c0,1.1,0.4,1.9,1.1,2.5c0.7,0.6,1.6,0.9,2.8,0.9c1.2,0,2.3-0.3,3.1-1c0.9-0.7,1.3-1.6,1.3-2.8V66.7z
			 M82.2,65.6c1.1,0,2.1-0.4,2.8-1.3c0.7-0.9,1.1-2.1,1.1-3.6c0-3.8-1.3-5.6-4-5.6c-2.6,0-4,1.8-4,5.4c0,1.6,0.4,2.8,1.1,3.7
			S81.1,65.6,82.2,65.6z"/>
		<path class="st6" d="M103.7,69.1c-0.1-0.5-0.2-1-0.3-1.6c-0.5,0.6-1.3,1.1-2.2,1.5c-0.9,0.4-2,0.6-3.1,0.6c-2,0-3.5-0.4-4.4-1.3
			c-0.9-0.9-1.4-2.1-1.4-3.5c0-1.3,0.2-2.3,0.6-3c0.4-0.7,1-1.3,1.7-1.8c0.7-0.4,1.6-0.7,2.6-0.9c1-0.2,2.1-0.4,3.2-0.6
			c1.2-0.2,2-0.4,2.4-0.7c0.4-0.3,0.6-0.7,0.6-1.3c0-0.6-0.3-1-0.8-1.3s-1.3-0.5-2.2-0.5c-1.1,0-1.8,0.2-2.3,0.7
			c-0.5,0.5-0.8,1.1-0.9,1.9h-4.3c0-0.9,0.2-1.7,0.4-2.5c0.3-0.8,0.7-1.4,1.3-2c0.6-0.5,1.4-1,2.4-1.3c1-0.3,2.2-0.4,3.6-0.4
			c1.4,0,2.6,0.2,3.5,0.5c1,0.3,1.7,0.8,2.3,1.3s1,1.3,1.3,2.2c0.3,0.9,0.4,1.9,0.4,2.9v11.1H103.7z M103.4,60.5
			c-0.2,0.2-0.6,0.4-1,0.6c-0.5,0.1-1.1,0.3-2,0.5c-1.3,0.3-2.2,0.6-2.7,1c-0.5,0.4-0.7,1-0.7,1.7c0,1.3,0.7,2,2.2,2
			c0.6,0,1.1-0.1,1.7-0.3c0.5-0.2,1-0.5,1.3-0.8c0.4-0.3,0.7-0.7,0.9-1.2s0.3-1,0.3-1.5L103.4,60.5z"/>
		<path class="st6" d="M121.3,69.1V58.5c0-1.4-0.2-2.3-0.7-2.7c-0.5-0.5-1.2-0.7-2.3-0.7c-2.4,0-3.6,1.3-3.6,4v10.1H110V51.5h4.4
			v2.6c0.5-1,1.3-1.8,2.2-2.3c0.9-0.5,2.1-0.8,3.5-0.8c0.8,0,1.6,0.1,2.3,0.4c0.7,0.3,1.3,0.6,1.8,1.1c0.5,0.5,0.9,1.1,1.2,1.8
			c0.3,0.7,0.4,1.6,0.4,2.5v12.2H121.3z"/>
		<path class="st6" d="M140.2,69.1l0-2.1c-1.1,1.7-2.7,2.6-4.9,2.6c-1.1,0-2.1-0.2-3.1-0.6c-0.9-0.4-1.7-1-2.4-1.9
			c-0.7-0.8-1.2-1.8-1.6-3c-0.4-1.2-0.6-2.5-0.6-4c0-1.3,0.2-2.6,0.5-3.7c0.3-1.1,0.8-2.1,1.4-2.9c0.6-0.8,1.4-1.4,2.3-1.9
			c0.9-0.4,1.9-0.7,3.1-0.7c2.2,0,3.9,0.9,5.2,2.7v-8.7h4.6v24H140.2z M136.3,65.8c1.1,0,2.1-0.5,2.8-1.4c0.7-0.9,1.1-2.1,1.1-3.6
			c0-3.8-1.3-5.7-3.9-5.7c-2.7,0-4,1.8-4,5.4c0,1.6,0.4,2.8,1.1,3.8C134.2,65.3,135.1,65.8,136.3,65.8z"/>
		<path class="st6" d="M157.6,69.1c-0.1-0.5-0.2-1-0.3-1.6c-0.5,0.6-1.3,1.1-2.2,1.5c-0.9,0.4-2,0.6-3.1,0.6c-2,0-3.5-0.4-4.4-1.3
			c-0.9-0.9-1.4-2.1-1.4-3.5c0-1.3,0.2-2.3,0.6-3c0.4-0.7,1-1.3,1.7-1.8c0.7-0.4,1.6-0.7,2.6-0.9c1-0.2,2.1-0.4,3.2-0.6
			c1.2-0.2,2-0.4,2.4-0.7c0.4-0.3,0.6-0.7,0.6-1.3c0-0.6-0.3-1-0.8-1.3c-0.5-0.3-1.3-0.5-2.2-0.5c-1.1,0-1.8,0.2-2.3,0.7
			c-0.5,0.5-0.8,1.1-0.9,1.9h-4.3c0-0.9,0.2-1.7,0.4-2.5c0.3-0.8,0.7-1.4,1.3-2c0.6-0.5,1.4-1,2.4-1.3c1-0.3,2.2-0.4,3.6-0.4
			c1.4,0,2.6,0.2,3.5,0.5c1,0.3,1.7,0.8,2.3,1.3c0.6,0.6,1,1.3,1.3,2.2c0.3,0.9,0.4,1.9,0.4,2.9v11.1H157.6z M157.3,60.5
			c-0.2,0.2-0.6,0.4-1,0.6c-0.5,0.1-1.1,0.3-2,0.5c-1.3,0.3-2.2,0.6-2.7,1c-0.5,0.4-0.7,1-0.7,1.7c0,1.3,0.7,2,2.2,2
			c0.6,0,1.1-0.1,1.7-0.3s1-0.5,1.3-0.8c0.4-0.3,0.7-0.7,0.9-1.2c0.2-0.5,0.3-1,0.3-1.5L157.3,60.5z"/>
		<path class="st6" d="M188.9,69.1l-1.5-4.9h-8.7l-1.7,4.9h-5.2l8.5-23.7h5.7l8.4,23.7H188.9z M183.1,50.7L183.1,50.7l-3.1,9.4h6
			L183.1,50.7z"/>
		<path class="st6" d="M195.7,49.4v-4.3h4.6v4.3H195.7z M195.7,69.1V51.5h4.6v17.6H195.7z"/>
		<path class="st6" d="M202.4,69.1V51.5h4.4v2.1c0.4-0.6,0.8-1.1,1.2-1.4c0.4-0.3,0.8-0.6,1.3-0.8c0.4-0.2,0.9-0.3,1.3-0.3
			c0.5,0,0.9-0.1,1.4-0.1h0.6v4.7c-0.4-0.1-0.9-0.1-1.3-0.1c-2.8,0-4.2,1.4-4.2,4.2v9.1H202.4z"/>
		<path class="st6" d="M213.9,69.1v-24h4.6v24H213.9z"/>
		<path class="st6" d="M220.6,49.4v-4.3h4.6v4.3H220.6z M220.6,69.1V51.5h4.6v17.6H220.6z"/>
		<path class="st6" d="M238.5,69.1V58.5c0-1.4-0.2-2.3-0.7-2.7c-0.5-0.5-1.2-0.7-2.3-0.7c-2.4,0-3.6,1.3-3.6,4v10.1h-4.6V51.5h4.4
			v2.6c0.5-1,1.3-1.8,2.2-2.3c0.9-0.5,2.1-0.8,3.5-0.8c0.8,0,1.6,0.1,2.3,0.4c0.7,0.3,1.3,0.6,1.8,1.1c0.5,0.5,0.9,1.1,1.2,1.8
			c0.3,0.7,0.4,1.6,0.4,2.5v12.2H238.5z"/>
		<path class="st6" d="M249.5,61.5c0.1,1.3,0.5,2.4,1.2,3.2s1.6,1.2,2.8,1.2c0.8,0,1.4-0.2,2-0.5c0.6-0.3,1-0.8,1.1-1.4h4.8
			c-0.5,1.8-1.5,3.2-2.9,4.2c-1.4,1-3,1.5-4.9,1.5c-5.9,0-8.8-3.2-8.8-9.6c0-1.4,0.2-2.6,0.6-3.7c0.4-1.1,0.9-2,1.7-2.8
			s1.6-1.4,2.7-1.8c1-0.4,2.2-0.6,3.6-0.6c2.7,0,4.8,0.9,6.2,2.6c1.4,1.7,2.1,4.4,2.1,7.9H249.5z M256.8,58.6c0-0.6-0.1-1.2-0.3-1.7
			c-0.2-0.5-0.5-0.9-0.8-1.2c-0.3-0.3-0.7-0.6-1.1-0.7c-0.4-0.2-0.9-0.2-1.3-0.2c-0.9,0-1.7,0.3-2.4,1c-0.7,0.7-1.1,1.6-1.2,2.8
			H256.8z"/>
		<path class="st6" d="M273.8,56.9c-0.1-0.9-0.4-1.5-0.9-1.8c-0.5-0.3-1.3-0.5-2.4-0.5c-0.9,0-1.6,0.1-2,0.3
			c-0.5,0.2-0.7,0.6-0.7,1.1s0.2,0.9,0.7,1.2c0.5,0.3,1.2,0.5,2.1,0.8c1,0.3,2,0.5,2.9,0.8c0.9,0.2,1.7,0.5,2.4,0.7
			c0.9,0.4,1.6,0.9,2.1,1.6c0.5,0.7,0.7,1.6,0.7,2.7c0,1.8-0.6,3.3-1.9,4.3c-1.3,1-3.2,1.5-5.7,1.5c-2.7,0-4.8-0.6-6.2-1.7
			s-2.2-2.6-2.2-4.4h4.8c0,0.8,0.3,1.5,1,1.9s1.5,0.7,2.7,0.7c0.8,0,1.6-0.1,2.2-0.4c0.6-0.3,0.9-0.7,0.9-1.4c0-0.6-0.3-1.1-0.8-1.3
			c-0.6-0.3-1.2-0.5-2-0.7c-1.5-0.4-2.7-0.7-3.6-1s-1.7-0.6-2.3-1c-0.8-0.5-1.4-1.1-1.7-1.8c-0.3-0.7-0.5-1.4-0.5-2.2
			c0-0.7,0.1-1.4,0.4-2.1c0.3-0.6,0.7-1.2,1.3-1.7s1.4-0.8,2.3-1.1c0.9-0.3,2.1-0.4,3.4-0.4c2.5,0,4.4,0.5,5.6,1.5
			c1.2,1,1.9,2.4,2,4.3H273.8z"/>
	</g>
</g>
<g>
	<path class="st6" d="M93.1,78.9h4.4v0.9h-3.3v2.7h3.1v0.9h-3.1V87h-1V78.9z"/>
	<path class="st6" d="M98.8,78.5h1.1V87h-1.1V78.5z"/>
	<path class="st6" d="M102,81.2l1.3,3.4c0.1,0.4,0.3,0.8,0.4,1.2h0c0.1-0.3,0.2-0.8,0.4-1.2l1.2-3.4h1.1l-1.6,4.1
		c-0.8,2-1.3,3-2,3.6c-0.5,0.5-1,0.6-1.3,0.7l-0.3-0.9c0.3-0.1,0.6-0.3,0.9-0.5c0.3-0.2,0.6-0.6,0.9-1.2c0-0.1,0.1-0.2,0.1-0.3
		c0-0.1,0-0.1-0.1-0.3l-2.1-5.3H102z"/>
	<path class="st6" d="M111,79.5v1.7h1.5V82H111v3.1c0,0.7,0.2,1.1,0.8,1.1c0.3,0,0.5,0,0.6-0.1l0,0.8c-0.2,0.1-0.5,0.1-0.9,0.1
		c-0.5,0-0.9-0.2-1.1-0.4c-0.3-0.3-0.4-0.8-0.4-1.5V82h-0.9v-0.8h0.9v-1.4L111,79.5z"/>
	<path class="st6" d="M113.7,78.5h1.1v3.6h0c0.2-0.3,0.4-0.6,0.8-0.7c0.3-0.2,0.7-0.3,1.1-0.3c0.8,0,2,0.5,2,2.5V87h-1.1v-3.3
		c0-0.9-0.3-1.7-1.3-1.7c-0.7,0-1.2,0.5-1.4,1.1c-0.1,0.1-0.1,0.3-0.1,0.5V87h-1.1V78.5z"/>
	<path class="st6" d="M121,84.3c0,1.4,0.9,2,2,2c0.8,0,1.2-0.1,1.6-0.3l0.2,0.8c-0.4,0.2-1,0.4-1.9,0.4c-1.8,0-2.9-1.2-2.9-2.9
		c0-1.8,1-3.1,2.7-3.1c1.9,0,2.4,1.7,2.4,2.7c0,0.2,0,0.4,0,0.5H121z M124.1,83.5c0-0.7-0.3-1.7-1.5-1.7c-1.1,0-1.5,1-1.6,1.7H124.1
		z"/>
	<path class="st6" d="M134.7,86.7c-0.4,0.2-1.2,0.4-2.1,0.4c-2.3,0-4-1.4-4-4.1c0-2.5,1.7-4.2,4.2-4.2c1,0,1.6,0.2,1.9,0.4l-0.3,0.9
		c-0.4-0.2-1-0.3-1.6-0.3c-1.9,0-3.2,1.2-3.2,3.3c0,2,1.1,3.2,3.1,3.2c0.6,0,1.3-0.1,1.7-0.3L134.7,86.7z"/>
	<path class="st6" d="M135.9,83c0-0.7,0-1.3,0-1.8h0.9l0,1.1h0c0.3-0.8,0.9-1.3,1.6-1.3c0.1,0,0.2,0,0.3,0v1c-0.1,0-0.2,0-0.4,0
		c-0.7,0-1.3,0.6-1.4,1.4c0,0.1,0,0.3,0,0.5V87h-1V83z"/>
	<path class="st6" d="M143,87l-0.1-0.7h0c-0.3,0.5-0.9,0.9-1.8,0.9c-1.2,0-1.8-0.8-1.8-1.7c0-1.4,1.2-2.2,3.5-2.2v-0.1
		c0-0.5-0.1-1.3-1.3-1.3c-0.5,0-1.1,0.2-1.5,0.4l-0.2-0.7c0.5-0.3,1.2-0.5,1.9-0.5c1.8,0,2.2,1.2,2.2,2.4v2.2c0,0.5,0,1,0.1,1.4H143
		z M142.8,84c-1.2,0-2.5,0.2-2.5,1.3c0,0.7,0.5,1,1,1c0.8,0,1.2-0.5,1.4-1c0-0.1,0.1-0.2,0.1-0.3V84z"/>
	<path class="st6" d="M145.5,82.7c0-0.6,0-1.1,0-1.6h0.9l0.1,1h0c0.3-0.6,1-1.1,1.9-1.1c0.8,0,2.1,0.5,2.1,2.5V87h-1.1v-3.3
		c0-0.9-0.3-1.7-1.3-1.7c-0.7,0-1.2,0.5-1.4,1.1c0,0.1-0.1,0.3-0.1,0.5V87h-1.1V82.7z"/>
	<path class="st6" d="M152.8,84.3c0,1.4,0.9,2,2,2c0.8,0,1.2-0.1,1.6-0.3l0.2,0.8c-0.4,0.2-1,0.4-1.9,0.4c-1.8,0-2.9-1.2-2.9-2.9
		c0-1.8,1-3.1,2.7-3.1c1.9,0,2.4,1.7,2.4,2.7c0,0.2,0,0.4,0,0.5H152.8z M155.9,83.5c0-0.7-0.3-1.7-1.5-1.7c-1.1,0-1.5,1-1.6,1.7
		H155.9z"/>
	<path class="st6" d="M162,79.5v1.7h1.5V82H162v3.1c0,0.7,0.2,1.1,0.8,1.1c0.3,0,0.5,0,0.6-0.1l0,0.8c-0.2,0.1-0.5,0.1-0.9,0.1
		c-0.5,0-0.9-0.2-1.1-0.4c-0.3-0.3-0.4-0.8-0.4-1.5V82h-0.9v-0.8h0.9v-1.4L162,79.5z"/>
	<path class="st6" d="M169.9,84c0,2.1-1.5,3.1-2.9,3.1c-1.6,0-2.8-1.2-2.8-3c0-1.9,1.3-3.1,2.9-3.1C168.8,81,169.9,82.3,169.9,84z
		 M165.3,84.1c0,1.3,0.7,2.2,1.8,2.2c1,0,1.8-0.9,1.8-2.3c0-1-0.5-2.2-1.7-2.2C165.8,81.8,165.3,83,165.3,84.1z"/>
	<path class="st6" d="M175.1,79.5v1.7h1.5V82h-1.5v3.1c0,0.7,0.2,1.1,0.8,1.1c0.3,0,0.5,0,0.6-0.1l0,0.8c-0.2,0.1-0.5,0.1-0.9,0.1
		c-0.5,0-0.9-0.2-1.1-0.4c-0.3-0.3-0.4-0.8-0.4-1.5V82h-0.9v-0.8h0.9v-1.4L175.1,79.5z"/>
	<path class="st6" d="M177.8,78.5h1.1v3.6h0c0.2-0.3,0.4-0.6,0.8-0.7c0.3-0.2,0.7-0.3,1.1-0.3c0.8,0,2,0.5,2,2.5V87h-1.1v-3.3
		c0-0.9-0.3-1.7-1.3-1.7c-0.7,0-1.2,0.5-1.4,1.1c-0.1,0.1-0.1,0.3-0.1,0.5V87h-1.1V78.5z"/>
	<path class="st6" d="M185,84.3c0,1.4,0.9,2,2,2c0.8,0,1.2-0.1,1.6-0.3l0.2,0.8c-0.4,0.2-1,0.4-1.9,0.4c-1.8,0-2.9-1.2-2.9-2.9
		c0-1.8,1-3.1,2.7-3.1c1.9,0,2.4,1.7,2.4,2.7c0,0.2,0,0.4,0,0.5H185z M188.1,83.5c0-0.7-0.3-1.7-1.5-1.7c-1.1,0-1.5,1-1.6,1.7H188.1
		z"/>
	<path class="st6" d="M193,79c0.5-0.1,1.2-0.2,2-0.2c1,0,1.8,0.2,2.3,0.7c0.4,0.4,0.7,1,0.7,1.7c0,0.7-0.2,1.3-0.6,1.7
		c-0.6,0.6-1.5,0.9-2.5,0.9c-0.3,0-0.6,0-0.8-0.1V87h-1V79z M194.1,82.9c0.2,0.1,0.5,0.1,0.9,0.1c1.3,0,2-0.6,2-1.7
		c0-1.1-0.8-1.6-1.9-1.6c-0.5,0-0.8,0-1,0.1V82.9z"/>
	<path class="st6" d="M199.6,84.3c0,1.4,0.9,2,2,2c0.8,0,1.2-0.1,1.6-0.3l0.2,0.8c-0.4,0.2-1,0.4-1.9,0.4c-1.8,0-2.9-1.2-2.9-2.9
		c0-1.8,1-3.1,2.7-3.1c1.9,0,2.4,1.7,2.4,2.7c0,0.2,0,0.4,0,0.5H199.6z M202.7,83.5c0-0.7-0.3-1.7-1.5-1.7c-1.1,0-1.5,1-1.6,1.7
		H202.7z"/>
	<path class="st6" d="M208.3,87l-0.1-0.7h0c-0.3,0.5-0.9,0.9-1.8,0.9c-1.2,0-1.8-0.8-1.8-1.7c0-1.4,1.2-2.2,3.5-2.2v-0.1
		c0-0.5-0.1-1.3-1.3-1.3c-0.5,0-1.1,0.2-1.5,0.4l-0.2-0.7c0.5-0.3,1.2-0.5,1.9-0.5c1.8,0,2.2,1.2,2.2,2.4v2.2c0,0.5,0,1,0.1,1.4
		H208.3z M208.1,84c-1.2,0-2.5,0.2-2.5,1.3c0,0.7,0.5,1,1,1c0.8,0,1.2-0.5,1.4-1c0-0.1,0.1-0.2,0.1-0.3V84z"/>
	<path class="st6" d="M210.9,83c0-0.7,0-1.3,0-1.8h0.9l0,1.1h0c0.3-0.8,0.9-1.3,1.6-1.3c0.1,0,0.2,0,0.3,0v1c-0.1,0-0.2,0-0.4,0
		c-0.7,0-1.3,0.6-1.4,1.4c0,0.1,0,0.3,0,0.5V87h-1V83z"/>
	<path class="st6" d="M214.8,78.5h1.1V87h-1.1V78.5z"/>
	<path class="st6" d="M225.5,84c0,2.1-1.5,3.1-2.9,3.1c-1.6,0-2.8-1.2-2.8-3c0-1.9,1.3-3.1,2.9-3.1C224.3,81,225.5,82.3,225.5,84z
		 M220.8,84.1c0,1.3,0.7,2.2,1.8,2.2c1,0,1.8-0.9,1.8-2.3c0-1-0.5-2.2-1.7-2.2C221.4,81.8,220.8,83,220.8,84.1z"/>
	<path class="st6" d="M226.9,87v-5h-0.8v-0.8h0.8v-0.3c0-0.8,0.2-1.6,0.7-2c0.4-0.4,0.9-0.5,1.4-0.5c0.4,0,0.7,0.1,0.9,0.2l-0.1,0.8
		c-0.2-0.1-0.4-0.1-0.7-0.1c-0.9,0-1.1,0.8-1.1,1.7v0.3h1.4V82h-1.4v5H226.9z"/>
	<path class="st6" d="M234.2,84.4l-0.8,2.5h-1.1l2.7-8.1h1.3L239,87h-1.1l-0.9-2.5H234.2z M236.8,83.6l-0.8-2.3
		c-0.2-0.5-0.3-1-0.4-1.5h0c-0.1,0.5-0.3,1-0.4,1.5l-0.8,2.3H236.8z"/>
	<path class="st6" d="M240.2,87v-5h-0.8v-0.8h0.8v-0.3c0-0.8,0.2-1.6,0.7-2c0.4-0.4,0.9-0.5,1.4-0.5c0.4,0,0.7,0.1,0.9,0.2l-0.1,0.8
		c-0.2-0.1-0.4-0.1-0.7-0.1c-0.9,0-1.1,0.8-1.1,1.7v0.3h1.4V82h-1.4v5H240.2z"/>
	<path class="st6" d="M243.6,83c0-0.7,0-1.3,0-1.8h0.9l0,1.1h0c0.3-0.8,0.9-1.3,1.6-1.3c0.1,0,0.2,0,0.3,0v1c-0.1,0-0.2,0-0.4,0
		c-0.7,0-1.3,0.6-1.4,1.4c0,0.1,0,0.3,0,0.5V87h-1V83z"/>
	<path class="st6" d="M248.7,79.5c0,0.4-0.3,0.6-0.7,0.6c-0.4,0-0.6-0.3-0.6-0.6c0-0.4,0.3-0.7,0.7-0.7
		C248.5,78.9,248.7,79.2,248.7,79.5z M247.6,87v-5.8h1.1V87H247.6z"/>
	<path class="st6" d="M254.5,86.8c-0.3,0.1-0.9,0.3-1.7,0.3c-1.8,0-2.9-1.2-2.9-3c0-1.8,1.2-3.1,3.1-3.1c0.6,0,1.2,0.2,1.5,0.3
		l-0.2,0.8c-0.3-0.1-0.6-0.3-1.2-0.3c-1.3,0-2.1,1-2.1,2.2c0,1.3,0.9,2.2,2,2.2c0.6,0,1-0.2,1.3-0.3L254.5,86.8z"/>
	<path class="st6" d="M259,87l-0.1-0.7h0c-0.3,0.5-0.9,0.9-1.8,0.9c-1.2,0-1.8-0.8-1.8-1.7c0-1.4,1.2-2.2,3.5-2.2v-0.1
		c0-0.5-0.1-1.3-1.3-1.3c-0.5,0-1.1,0.2-1.5,0.4l-0.2-0.7c0.5-0.3,1.2-0.5,1.9-0.5c1.8,0,2.2,1.2,2.2,2.4v2.2c0,0.5,0,1,0.1,1.4H259
		z M258.8,84c-1.2,0-2.5,0.2-2.5,1.3c0,0.7,0.5,1,1,1c0.8,0,1.2-0.5,1.4-1c0-0.1,0.1-0.2,0.1-0.3V84z"/>
</g>
</svg>
